<svg version="1.1" xmlns="http://www.w3.org/2000/svg" xmlns:xlink="http://www.w3.org/1999/xlink" width="112.81998" height="131.68686" viewBox="0,0,112.81998,131.68686"><g transform="translate(-192.90833,-113.65222)"><g data-paper-data="{&quot;isPaintingLayer&quot;:true}" fill-rule="nonzero" stroke-linecap="round" stroke-linejoin="miter" stroke-miterlimit="10" stroke-dasharray="" stroke-dashoffset="0" style="mix-blend-mode: normal"><path d="M289.6297,114.9273c0.696,-0.6918 1.4727,-1.247 2.3543,-1.2737c1.9183,-0.0223 3.9487,0.2207 5.6298,1.1339c2.3762,1.2915 4.5339,3.156 6.1637,5.2868c1.1463,1.479 1.6298,3.4257 1.9071,5.2112c0.1033,0.6668 0.0784,0.9517 -0.6975,1.9022c-3.1018,3.8009 -6.0562,7.8508 -9.7764,11.0848c-1.1507,0.9598 -3.1196,1.915 -4.3983,1.1169c-4.6373,-2.8931 -9.146,-6.6389 -11.8674,-11.3408c-0.8591,-1.484 1.7606,-2.961 2.8368,-4.2956c2.4582,-3.0469 5.0511,-6.0585 7.8479,-8.8257z" fill="#ff9400" stroke="none" stroke-width="1"/><path d="M275.0227,131.4587c1.491,-1.5516 1.6933,-2.0836 2.7492,-1.8452c3.1586,0.832 6.215,2.5257 8.5642,4.7188c2.06,1.9221 2.9847,4.8123 4.2007,7.3427c0.3544,0.7283 1.6378,0.4315 0.3456,2.0324c-4.8823,6.7213 -10.711,12.7312 -16.0061,19.0818c-17.7348,21.272 -35.1197,42.8607 -53.0407,63.8808c-4.5044,5.3121 -1.8064,1.7931 -2.8949,1.7838c-2.7662,-0.0246 -5.6312,-0.5653 -8.1302,-1.8772c-2.005,-0.8488 -3.441,-2.7733 -4.9287,-4.3898c-0.956,-1.0442 -2.3238,-2.3406 -2.3631,-3.842c-0.0417,-1.6269 -2.055,0.7701 2.2577,-4.5908c16.9821,-21.2023 34.4159,-42.1725 51.9747,-63.0599c5.5391,-6.5897 11.3074,-13.0284 17.2716,-19.2354z" fill="#ff0000" stroke="none" stroke-width="1"/><path d="M258.2561,165.6404c8.1085,-9.6263 16.1994,-19.3856 24.4165,-29.054c2.0212,-2.3203 1.5131,-2.8014 2.9787,-3.0195c1.1515,-0.1771 2.0355,1.1799 2.7604,2.2163c1.3618,1.9542 2.3524,4.1193 3.0054,6.4934c0.2293,0.8687 1.4242,-0.9811 -1.1786,2.428c-10.8013,13.4418 -21.7064,26.8243 -32.6815,40.1215c-11.8048,14.3018 -23.6061,28.7098 -35.843,42.6204c-3.1304,3.4612 -1.8293,0.9744 -2.8475,1.0233c-1.8439,0.028 -3.992,0.3344 -5.7499,-0.4368c-1.7884,-0.787 -3.8428,-1.9916 -4.4393,-3.8564c-0.2641,-1.3195 -0.3637,0.1012 2.5044,-3.301c11.4716,-13.6103 23.1265,-27.1106 34.6772,-40.66c4.1256,-4.8439 8.2929,-9.7031 12.3972,-14.5752z" fill="#ff0000" stroke="none" stroke-width="0.66647"/><path d="M283.7484,120.9953c0.6319,-0.6797 0.6362,-0.6573 1.2424,-0.5065c2.2706,0.7328 4.5702,1.5842 6.5966,2.913c2.1895,1.4367 4.0723,3.3683 5.7572,5.356c1.102,1.2981 1.8438,2.8584 2.5205,4.4057c0.1689,0.387 0.468,0.2395 -0.1225,0.9434c-2.3935,2.9215 -4.9635,5.7001 -7.5643,8.3961c-0.6484,0.6734 -0.614,0.5125 -0.8244,0.2878c-0.838,-0.8947 -1.0276,-2.3204 -1.8568,-3.2515c-2.0563,-2.3111 -4.2219,-4.6876 -6.7699,-6.5369c-1.529,-1.0651 -3.5098,-1.3664 -5.258,-2.0582c-0.4993,-0.1977 -1.2553,-0.2146 -1.5533,-0.6707c-0.149,-0.2541 0.0597,-0.0456 0.6595,-0.7518c2.3989,-2.8238 4.6477,-5.8075 7.173,-8.5264z" fill="#1a00ff" stroke="none" stroke-width="1"/><path d="M279.9492,126.0696c0,0 6.1578,1.4682 8.5141,3.4111c2.8705,2.3665 3.4236,2.6476 6.5787,9.0296" fill="none" stroke="#1a00ff" stroke-width="2"/><path d="M205.816,219.7747c0.8575,0.5492 2.2904,-1.1071 3.0371,-0.3688c1.2226,1.216 -0.0779,4.1151 1.3203,5.0156c1.2849,0.8227 3.2764,-1.8017 4.4866,-0.9597c1.2183,0.8527 -0.1696,3.3348 0.9175,4.383c1.0243,0.9893 3.2329,0.0855 4.1993,0.8236c0.471,0.3581 0.6696,0.4365 -1.2268,1.6109c-7.5874,4.6965 -15.1026,9.6282 -23.1057,13.5727c-2.0012,0.9859 -1.8719,0.1634 -1.3694,-1.7598c2.0093,-7.6939 4.9856,-14.9987 7.7299,-22.3243c0.6917,-1.9177 0.9477,-2.3785 1.748,-3.1756c0.2862,-0.2799 0.9965,-0.3087 1.2041,-0.0079c0.6333,0.9231 0.1492,2.606 1.0591,3.1903z" fill="#ff0000" stroke="none" stroke-width="1"/><path d="M193.0133,244.819c0.4313,-1.6359 1.0104,-3.2222 1.5712,-4.7939c0.1606,-0.4069 0.1553,-0.4685 0.3335,-0.4258c0.6947,0.1747 1.3761,0.4827 1.933,0.9506c0.5767,0.4966 1.0564,1.1723 1.3119,1.8558c0.0741,0.1982 -0.1117,0.201 -0.4831,0.4143c-1.4797,0.8543 -2.943,1.7962 -4.5015,2.4629c-0.3899,0.1667 -0.2738,-0.0521 -0.165,-0.4639z" fill="#464646" stroke="none" stroke-width="1"/><path d="M279.2777,141.3631l-60.9577,72.2999" fill="none" stroke="#ff9d00" stroke-width="2"/></g></g></svg>