<svg version="1.1" xmlns="http://www.w3.org/2000/svg" xmlns:xlink="http://www.w3.org/1999/xlink" width="98.87889" height="116.01146" viewBox="0,0,98.87889,116.01146"><g transform="translate(-246.27379,-63.32287)"><g data-paper-data="{&quot;isPaintingLayer&quot;:true}" fill-rule="nonzero" stroke-linecap="round" stroke-linejoin="miter" stroke-miterlimit="10" stroke-dasharray="" stroke-dashoffset="0" style="mix-blend-mode: normal"><path d="M256.74974,151.20374c3.13311,-2.18578 7.70522,-6.48528 10.70981,-4.13788c4.29074,3.27818 5.61681,10.58129 4.13788,15.82131c-1.0554,3.74065 -6.79002,4.02689 -10.223,6.08512c-2.16143,1.10408 -4.38031,2.10789 -6.57193,3.40767c-1.47114,0.86944 -2.67259,1.99981 -4.38129,2.67745c-0.48194,0.18986 -1.77393,1.06806 -1.46043,-0.48681c1.25792,-6.20098 3.33854,-12.27247 5.35491,-18.25536c0.5793,-1.72136 0.89865,-4.01326 2.43405,-5.1115z" data-paper-data="{&quot;index&quot;:null}" fill="#ffffcc" stroke="none" stroke-width="1"/><path d="M247.27379,177.36071c0,0 0.13923,-0.81687 0.2434,-1.21702c0.38263,-1.4653 0.78182,-2.93059 1.21702,-4.38129c0.29501,-0.98238 0.66498,-1.94334 0.97362,-2.92086c0.66401,-2.10302 1.33386,-4.2109 1.94724,-6.32853c0.27846,-0.96291 0.44202,-1.96087 0.73021,-2.92086c0.44202,-1.47309 1.46043,-4.38129 1.46043,-4.38129" data-paper-data="{&quot;index&quot;:null}" fill="none" stroke="#000000" stroke-width="2"/><path d="M247.5172,178.33433c0,0 0.33785,0.06621 0.48681,0c0.59683,-0.2658 1.15374,-0.6202 1.70383,-0.97362c0.58612,-0.37679 1.11771,-0.84023 1.70383,-1.21702c0.55009,-0.35342 1.13427,-0.6533 1.70383,-0.97362c2.02415,-1.13816 4.00742,-2.36882 6.08512,-3.40767c1.49451,-0.74774 3.11558,-1.23065 4.62469,-1.94724c1.73596,-0.82466 3.41643,-1.77296 5.1115,-2.67745c0.73606,-0.39237 2.19064,-1.21702 2.19064,-1.21702" data-paper-data="{&quot;index&quot;:null}" fill="none" stroke="#000000" stroke-width="2"/><path d="M247.27379,177.60411l0.29209,0.29209" data-paper-data="{&quot;index&quot;:null}" fill="none" stroke="#000000" stroke-width="2"/><path d="M252.14189,169.81516c0.62604,0.05355 1.2511,0.33687 1.72039,0.74871c0.51894,0.45663 0.86263,1.07001 1.15179,1.68534c0.19278,0.41184 0.3505,0.96388 0.14604,1.46043c-0.06426,0.27456 -0.32616,0.19667 -0.82758,0.48681c-2.01052,1.16348 -4.83207,4.0561 -6.08512,3.40767c-1.14887,-0.64843 -0.02726,-3.7533 0.2434,-5.59831c0.11002,-0.67959 0.1256,-1.57726 0.73021,-1.94724c0.8266,-0.48876 1.98521,-0.32811 2.92086,-0.2434z" data-paper-data="{&quot;index&quot;:null}" fill="#000000" stroke="none" stroke-width="1"/><g data-paper-data="{&quot;index&quot;:null}"><path d="M329.75708,64.61121c3.37943,-0.00584 7.09768,1.40785 9.73619,3.65107c2.24517,1.91024 4.40173,5.03653 4.13788,8.03236c-0.2434,2.71835 -3.543,4.56433 -5.59831,6.57193c-1.6386,1.61329 -3.17887,5.30623 -5.59831,4.8681c-3.0854,-0.58612 -4.30048,-4.82331 -6.81534,-6.81534c-1.84111,-1.46043 -6.32755,-0.88113 -6.32853,-3.16426c0.12073,-3.81951 4.28393,-6.38694 6.57193,-9.24938c1.14498,-1.43219 2.05434,-3.89156 3.89448,-3.89448z" data-paper-data="{&quot;index&quot;:null}" fill="#ff9400" stroke="none" stroke-width="1"/><path d="M322.45493,74.5908c3.29083,-0.40892 6.73452,1.38254 9.36524,3.40572c2.08744,1.60452 4.85349,4.37837 4.26543,7.06069c-0.96388,4.37545 -4.93528,8.0236 -8.51917,10.95322c-0.88113,0.72632 -1.6941,-1.34457 -2.67745,-1.94724c-1.32899,-1.10019 -2.6648,-2.22277 -4.25374,-3.16232c-2.58983,-1.53345 -6.57582,-1.68631 -7.9165,-4.38323c-1.02717,-2.07673 1.03204,-4.48449 2.43405,-6.08512c1.956,-2.51291 4.30632,-5.47271 7.30214,-5.84172z" data-paper-data="{&quot;index&quot;:null}" fill="#b5b5b5" stroke="none" stroke-width="1"/><path d="M273.53056,132.03434c12.42144,-15.13686 24.91297,-30.31461 37.48434,-45.5167c3.15453,-3.79906 1.55779,-2.67745 2.92086,-3.16426c1.84988,-0.73021 4.04052,-0.63285 6.08512,0c2.28801,0.68153 4.42997,2.0446 6.08512,3.89448c1.60647,1.75251 3.11558,4.0892 3.40767,6.57193c0.14604,1.50911 0.92494,0.09736 -2.19064,4.13788c-12.51101,15.67527 -25.53025,31.13732 -38.21456,46.73373c-5.33446,6.55927 -10.50048,13.07571 -15.82131,19.47239c-1.28226,1.72331 -1.14011,2.62975 -2.19064,2.67745c-1.0223,0.03408 -1.38546,-1.54611 -2.19064,-2.19064c-0.82563,-0.66011 -1.63665,-1.52274 -2.67745,-1.70383c-0.98822,-0.17136 -1.92192,0.65038 -2.92086,0.73021c-1.05346,0.0847 -2.62196,0.64064 -3.16426,-0.2434c-0.67374,-1.10993 0.4245,-2.82836 0.48681,-4.38129c0.09639,-0.72243 0.53646,-1.63373 0,-2.43405c-0.51504,-0.67764 -1.68144,-0.41476 -2.43405,-0.73021c-1.07682,-0.4615 -4.47086,0.78961 -3.16426,-1.21702c5.20594,-8.07423 12.27831,-15.07844 18.49877,-22.63665z" data-paper-data="{&quot;index&quot;:null}" fill="#ffff00" stroke="#000000" stroke-width="2"/><path d="M261.84713,162.94676l52.81885,-65.96271" data-paper-data="{&quot;index&quot;:null}" fill="none" stroke="#000000" stroke-width="2"/><path d="M313.93576,82.62316c0,0 3.77667,-5.06574 5.84172,-7.54555c0.45079,-0.55302 0.61435,-0.96388 1.21702,-0.97362c1.96963,-0.03602 4.02981,0.11489 5.84172,0.97362c2.51194,1.19463 4.83402,3.06203 6.57193,5.35491c1.43901,1.63568 1.76809,4.01131 2.67745,6.08512c0.22783,0.51797 0.45371,-0.06621 0.2434,0.2434c-0.7935,1.20145 -1.75544,2.2218 -2.67745,3.40767c-1.34749,1.65126 -4.13788,5.1115 -4.13788,5.1115" data-paper-data="{&quot;index&quot;:null}" fill="none" stroke="#000000" stroke-width="2"/><path d="M321.2456,73.85543c0,0 4.01745,-5.59773 6.30292,-8.04511c0.51553,-0.6385 0.91413,-1.38663 1.69098,-1.43482c1.73304,-0.16396 3.55429,-0.13017 5.17557,0.61494c2.62264,1.20622 5.21139,2.75486 7.17402,4.8681c1.43794,1.56285 2.11129,3.6536 2.51096,5.68798c0.23669,0.6754 -0.36998,1.3508 -0.71746,1.94724c-0.75017,1.2882 -1.53929,2.55497 -2.45965,3.63822c-1.59469,2.01286 -5.07304,5.63677 -5.07304,5.63677" data-paper-data="{&quot;index&quot;:null}" fill="none" stroke="#000000" stroke-width="2.10526"/><path d="M323.42855,79.7023c0,0 -0.16259,-0.06036 0,0c0.64843,0.2434 1.33581,0.40405 1.94724,0.73021c0.61533,0.32811 1.15569,0.78668 1.70383,1.21702c0.58807,0.4615 1.15666,0.9522 1.70383,1.46043c0.58807,0.5462 1.22968,1.05638 1.70383,1.70383c0.42839,0.58417 0.67959,1.28518 0.97362,1.94724c0.3544,0.79739 0.97362,2.43405 0.97362,2.43405" data-paper-data="{&quot;index&quot;:null}" fill="none" stroke="#000000" stroke-width="2"/></g></g></g></svg>